<svg id="svg" version="1.1" xmlns="http://www.w3.org/2000/svg" xmlns:xlink="http://www.w3.org/1999/xlink" width="400" height="400" viewBox="0, 0, 400,400"><g id="svgg"><path id="path0" d="M180.200 55.223 C 116.564 61.552,68.019 108.502,58.836 172.600 C 57.152 184.353,57.000 186.775,57.015 201.600 C 57.068 252.690,75.591 293.739,111.400 322.122 C 151.683 354.053,213.923 359.821,259.388 335.837 L 264.200 333.299 268.669 333.847 C 278.241 335.022,291.316 337.704,299.570 340.186 C 307.457 342.558,306.374 340.532,296.000 333.503 C 281.395 323.607,271.376 319.483,253.600 316.048 C 247.592 314.887,238.296 313.751,231.800 313.384 C 229.600 313.260,226.270 312.987,224.400 312.778 C 222.530 312.569,217.760 312.126,213.800 311.795 C 162.057 307.467,132.177 290.334,111.819 253.319 C 108.545 247.367,108.379 248.041,114.592 242.101 C 126.393 230.821,140.115 223.767,153.704 221.994 C 155.575 221.750,170.834 221.408,189.000 221.203 C 216.178 220.897,221.362 220.746,223.400 220.206 C 233.127 217.626,237.187 211.971,237.197 200.984 C 237.207 189.936,231.027 182.907,219.798 181.197 C 214.255 180.353,157.461 181.803,148.013 183.030 C 112.910 187.588,83.396 209.826,74.147 238.685 C 72.237 244.647,71.357 244.944,71.738 239.500 C 72.940 222.290,84.820 200.761,99.312 189.528 C 101.106 188.138,103.373 186.263,104.349 185.362 L 106.124 183.725 106.452 179.162 C 107.559 163.752,112.157 149.816,120.174 137.580 C 141.701 104.722,188.532 89.949,223.534 104.975 C 237.135 110.815,251.585 123.688,258.473 136.103 C 259.723 138.356,260.983 140.506,261.273 140.880 C 261.981 141.794,297.235 141.238,301.606 140.244 C 308.324 138.717,309.353 136.580,306.786 129.486 C 297.611 104.131,263.695 71.948,235.026 61.394 C 220.675 56.111,197.500 53.503,180.200 55.223 " stroke="none" fill="#940404" fill-rule="evenodd"></path><path id="path1" d="M288.000 175.839 C 280.325 176.448,272.232 177.435,271.696 177.827 C 271.104 178.260,271.122 178.600,271.906 181.850 C 274.128 191.051,275.010 202.157,274.586 215.600 C 274.409 221.210,274.250 227.060,274.232 228.600 L 274.200 231.400 275.632 232.101 C 278.585 233.545,296.597 236.000,304.242 236.000 C 315.109 236.000,316.534 232.367,316.563 204.600 C 316.586 182.255,315.794 178.371,310.849 176.565 C 309.054 175.910,293.387 175.411,288.000 175.839 M256.269 271.700 C 249.175 283.416,232.198 299.200,221.490 304.036 C 219.528 304.922,220.505 305.391,224.832 305.640 C 227.124 305.772,229.360 305.990,229.800 306.125 C 230.240 306.259,232.490 306.557,234.800 306.785 C 242.008 307.500,254.864 310.946,266.502 315.283 C 269.218 316.295,271.148 316.799,271.739 316.651 C 272.695 316.411,278.521 308.165,280.395 304.400 C 280.888 303.410,281.700 302.055,282.198 301.389 C 284.153 298.779,289.549 286.889,290.394 283.331 C 292.498 274.473,289.244 272.121,271.400 269.600 C 268.540 269.196,265.230 268.671,264.045 268.433 C 262.860 268.195,261.130 268.000,260.200 268.000 L 258.509 268.000 256.269 271.700 " stroke="none" fill="#0c0c0c" fill-rule="evenodd"></path><path id="path2" d="M184.800 54.416 C 145.816 56.701,111.209 74.739,86.214 105.800 C 77.515 116.611,67.363 135.549,64.159 146.946 C 62.947 151.256,63.092 151.896,64.373 147.891 C 80.841 96.414,127.060 59.819,181.459 55.184 C 216.485 52.199,244.645 61.021,271.200 83.297 C 292.189 100.904,312.244 131.297,307.147 137.776 C 305.097 140.383,302.007 140.778,280.400 141.199 C 263.108 141.535,261.763 141.513,261.273 140.880 C 260.983 140.506,259.723 138.356,258.473 136.103 C 250.211 121.213,233.643 107.880,216.627 102.429 C 202.689 97.964,182.367 98.112,168.600 102.778 C 167.280 103.225,166.650 103.493,167.200 103.374 C 193.488 97.672,210.223 98.707,226.918 107.067 C 239.232 113.233,251.868 125.277,258.642 137.304 L 261.344 142.101 277.772 141.839 C 301.532 141.461,305.741 140.887,307.800 137.744 C 312.595 130.425,290.813 98.069,269.923 81.480 C 243.320 60.354,218.441 52.444,184.800 54.416 M160.359 105.545 C 128.781 118.068,108.889 145.234,106.452 179.162 L 106.124 183.725 104.349 185.362 C 103.373 186.263,101.106 188.138,99.312 189.528 C 84.820 200.761,72.940 222.290,71.738 239.500 C 71.357 244.944,72.237 244.647,74.147 238.685 C 81.310 216.336,101.804 196.642,126.800 188.087 C 141.887 182.923,147.658 182.299,190.400 181.215 L 204.200 180.865 185.600 181.046 C 151.888 181.374,144.874 182.034,130.737 186.207 C 103.815 194.154,81.823 214.248,73.799 238.230 C 71.955 243.742,71.832 243.821,72.162 239.280 C 72.705 231.800,75.964 221.819,80.523 213.671 C 81.837 211.322,83.539 208.230,84.304 206.800 C 86.980 201.800,94.523 193.776,102.112 187.855 C 106.120 184.728,106.800 183.691,106.800 180.703 C 106.800 149.376,129.461 118.204,161.400 105.594 C 163.160 104.899,164.675 104.256,164.767 104.165 C 165.201 103.735,163.882 104.148,160.359 105.545 M62.271 153.694 C 61.902 155.163,61.616 156.597,61.636 156.882 C 61.656 157.167,62.012 156.140,62.426 154.600 C 62.841 153.060,63.127 151.625,63.061 151.412 C 62.995 151.199,62.640 152.226,62.271 153.694 M61.200 157.841 C 61.200 158.046,60.749 160.191,60.199 162.607 C 59.648 165.023,58.760 170.060,58.226 173.800 C 57.302 180.275,57.129 181.830,56.557 188.800 C 56.224 192.859,56.227 209.832,56.561 213.800 C 57.751 227.932,58.713 234.193,61.199 244.000 C 62.371 248.621,63.916 253.389,63.971 252.550 C 63.987 252.303,63.720 251.313,63.377 250.350 C 58.190 235.771,55.256 201.855,57.517 182.600 C 58.462 174.547,59.632 167.050,60.657 162.469 C 61.215 159.977,61.565 157.832,61.436 157.702 C 61.306 157.573,61.200 157.635,61.200 157.841 M290.600 175.222 C 285.090 175.542,275.232 176.525,272.100 177.065 C 270.561 177.330,270.393 178.484,271.401 181.879 C 273.642 189.424,274.723 205.238,274.009 220.021 C 273.410 232.428,273.370 232.182,276.099 232.992 C 280.133 234.190,293.173 236.040,296.988 235.955 C 298.221 235.928,297.077 235.701,294.034 235.370 C 286.630 234.563,277.267 232.900,275.637 232.103 L 274.200 231.400 274.232 228.600 C 274.250 227.060,274.409 221.210,274.586 215.600 C 275.010 202.157,274.128 191.051,271.906 181.850 C 271.122 178.600,271.104 178.260,271.696 177.827 C 274.126 176.050,306.215 174.967,310.643 176.513 C 315.806 178.316,316.586 182.018,316.563 204.600 C 316.539 227.457,315.077 234.285,309.964 235.408 C 309.292 235.555,308.837 235.771,308.953 235.886 C 310.034 236.968,314.061 233.554,315.156 230.626 C 318.498 221.692,318.115 183.908,314.627 178.586 C 312.662 175.587,304.340 174.421,290.600 175.222 M209.100 180.697 C 210.695 180.773,213.305 180.773,214.900 180.697 C 216.495 180.621,215.190 180.559,212.000 180.559 C 208.810 180.559,207.505 180.621,209.100 180.697 M221.000 181.390 C 231.370 183.306,237.207 190.368,237.197 200.984 C 237.187 211.883,233.119 217.619,223.600 220.160 C 222.390 220.483,221.775 220.759,222.234 220.774 C 223.280 220.807,227.699 219.370,229.714 218.342 C 239.216 213.494,240.506 194.367,231.900 185.940 C 228.776 182.881,223.685 180.744,219.742 180.836 C 218.514 180.865,218.771 180.978,221.000 181.390 M184.200 221.226 C 148.000 221.611,144.101 222.270,130.066 230.380 C 122.605 234.692,110.216 245.030,109.389 247.634 C 109.063 248.662,113.117 256.099,118.200 263.800 C 136.756 291.911,170.551 309.396,210.200 311.402 C 212.556 311.521,211.449 311.323,206.995 310.827 C 159.718 305.570,132.257 288.625,111.780 252.073 L 109.468 247.946 113.634 243.750 C 123.485 233.827,135.582 226.698,147.946 223.529 C 153.754 222.040,159.459 221.772,188.600 221.616 C 199.820 221.556,211.790 221.378,215.200 221.222 L 221.400 220.936 216.200 220.938 C 213.340 220.940,198.940 221.069,184.200 221.226 M301.700 236.296 C 302.965 236.375,305.035 236.375,306.300 236.296 C 307.565 236.216,306.530 236.151,304.000 236.151 C 301.470 236.151,300.435 236.216,301.700 236.296 M64.253 254.400 C 65.346 260.687,71.685 274.226,79.264 286.463 C 80.989 289.248,82.400 291.654,82.400 291.810 C 82.400 293.141,91.471 303.905,98.782 311.251 C 114.711 327.253,130.790 337.245,151.800 344.197 C 187.326 355.952,229.296 352.607,261.107 335.487 C 264.411 333.709,263.860 333.719,274.526 335.254 C 277.565 335.692,280.257 335.981,280.509 335.897 C 281.045 335.718,273.944 334.506,268.200 333.796 L 264.200 333.301 259.388 335.838 C 223.410 354.810,174.092 355.437,136.126 337.405 C 104.309 322.294,79.335 294.387,66.498 259.600 C 63.968 252.743,63.962 252.730,64.253 254.400 M257.619 268.149 C 257.283 269.034,254.195 273.940,252.935 275.591 C 249.817 279.678,243.935 286.340,241.626 288.400 C 240.024 289.830,238.057 291.637,237.256 292.415 C 236.455 293.194,235.080 294.363,234.200 295.013 C 233.320 295.663,232.510 296.309,232.400 296.447 C 232.111 296.811,223.170 302.398,222.860 302.409 C 222.717 302.414,222.150 302.770,221.600 303.200 C 221.050 303.630,220.285 303.986,219.900 303.991 C 219.422 303.997,219.200 304.318,219.200 305.000 C 219.200 305.951,219.313 306.000,221.511 306.000 C 227.316 306.000,247.546 309.339,252.400 311.098 C 255.019 312.047,265.537 315.650,266.061 315.778 C 266.424 315.867,267.260 316.218,267.919 316.558 C 270.168 317.721,272.097 317.788,273.003 316.734 C 274.359 315.158,280.128 306.475,281.418 304.071 C 282.088 302.822,283.213 300.910,283.918 299.822 C 284.623 298.734,285.200 297.634,285.200 297.378 C 285.200 297.122,285.740 295.900,286.401 294.662 C 287.061 293.425,287.899 291.644,288.263 290.706 C 288.627 289.768,289.171 288.711,289.472 288.358 C 289.773 288.004,290.216 286.564,290.456 285.158 C 290.697 283.751,291.052 282.429,291.247 282.220 C 292.265 281.124,291.308 276.287,289.693 274.371 C 288.750 273.251,283.587 270.801,282.158 270.795 C 281.521 270.793,279.560 270.433,277.800 269.995 C 276.040 269.558,272.890 269.012,270.800 268.782 C 268.710 268.552,266.460 268.206,265.800 268.014 C 262.382 267.020,258.021 267.091,257.619 268.149 M264.045 268.433 C 265.230 268.671,268.540 269.196,271.400 269.600 C 289.244 272.121,292.498 274.473,290.394 283.331 C 289.549 286.889,284.153 298.779,282.198 301.389 C 281.700 302.055,280.888 303.410,280.395 304.400 C 278.521 308.165,272.695 316.411,271.739 316.651 C 271.148 316.799,269.218 316.295,266.502 315.283 C 254.864 310.946,242.008 307.500,234.800 306.785 C 232.490 306.557,230.240 306.259,229.800 306.125 C 229.360 305.990,227.124 305.772,224.832 305.640 C 220.505 305.391,219.528 304.922,221.490 304.036 C 232.198 299.200,249.175 283.416,256.269 271.700 L 258.509 268.000 260.200 268.000 C 261.130 268.000,262.860 268.195,264.045 268.433 M219.843 307.033 C 219.709 307.381,219.600 307.996,219.600 308.399 C 219.600 308.803,219.388 309.204,219.129 309.290 C 218.870 309.377,218.791 309.662,218.953 309.924 C 219.308 310.499,222.000 310.566,222.000 310.000 C 222.000 309.780,222.289 309.600,222.643 309.600 C 223.065 309.600,223.202 309.382,223.043 308.967 C 222.909 308.619,222.800 308.259,222.800 308.167 C 222.800 308.075,222.271 308.000,221.624 308.000 C 220.977 308.000,220.336 307.820,220.200 307.600 C 220.064 307.380,220.143 307.200,220.376 307.200 C 220.609 307.200,220.800 307.020,220.800 306.800 C 220.800 306.167,220.111 306.335,219.843 307.033 M227.600 308.207 C 227.600 308.701,227.292 308.829,226.334 308.730 C 225.575 308.652,225.000 308.800,224.900 309.100 C 224.785 309.444,225.228 309.600,226.320 309.600 C 227.876 309.600,228.962 308.394,227.962 307.777 C 227.763 307.654,227.600 307.847,227.600 308.207 M230.267 308.667 C 229.195 309.739,230.041 311.200,231.733 311.200 C 232.687 311.200,233.574 311.308,233.706 311.439 C 233.838 311.571,235.443 311.712,237.273 311.754 C 239.103 311.795,240.813 311.960,241.072 312.121 C 241.332 312.282,241.658 312.230,241.796 312.007 C 242.108 311.501,243.600 311.467,243.600 311.965 C 243.600 312.308,244.737 312.572,248.000 312.985 C 248.770 313.082,250.300 313.352,251.400 313.583 C 252.500 313.815,254.300 314.169,255.400 314.370 C 256.500 314.572,257.715 314.860,258.100 315.011 C 258.544 315.185,258.800 315.099,258.800 314.776 C 258.800 314.496,258.680 314.387,258.532 314.534 C 258.385 314.681,257.980 314.552,257.632 314.248 C 256.836 313.550,252.516 312.259,251.244 312.340 C 250.719 312.373,250.089 312.153,249.844 311.851 C 249.457 311.371,247.152 310.787,243.000 310.115 C 242.340 310.009,241.710 309.793,241.600 309.636 C 241.490 309.479,241.040 309.339,240.600 309.324 C 240.160 309.309,239.227 309.165,238.526 309.004 C 237.366 308.737,237.271 308.786,237.472 309.555 C 237.644 310.212,237.511 310.400,236.874 310.400 C 236.340 310.400,236.011 310.098,235.928 309.531 C 235.739 308.251,234.800 308.114,234.800 309.367 C 234.800 310.716,233.701 310.742,233.364 309.400 C 233.036 308.093,232.400 308.113,232.400 309.429 C 232.400 310.198,232.223 310.422,231.700 310.313 C 231.249 310.219,231.034 309.853,231.095 309.284 C 231.188 308.421,230.801 308.132,230.267 308.667 M214.800 311.538 C 213.709 311.766,220.453 312.508,229.600 313.165 C 260.486 315.385,276.498 320.289,296.000 333.503 C 306.373 340.531,307.462 342.568,299.570 340.180 C 295.327 338.896,286.818 336.792,286.010 336.826 C 285.675 336.840,288.100 337.541,291.400 338.383 C 294.700 339.226,298.570 340.292,300.000 340.752 C 312.149 344.665,300.652 334.285,282.347 324.814 C 279.567 323.377,277.273 322.020,277.249 321.800 C 277.224 321.580,276.618 321.258,275.902 321.084 C 275.186 320.911,272.260 320.064,269.400 319.202 C 260.639 316.564,252.346 314.767,246.400 314.219 C 244.970 314.087,241.190 313.719,238.000 313.400 C 232.899 312.890,226.823 312.356,219.600 311.783 C 218.390 311.687,217.040 311.545,216.600 311.469 C 216.160 311.392,215.350 311.423,214.800 311.538 M273.680 318.080 C 272.952 318.808,273.088 319.083,274.400 319.540 C 275.761 320.015,275.768 320.006,275.136 318.619 C 274.615 317.476,274.373 317.387,273.680 318.080 M282.200 336.400 C 282.860 336.568,283.850 336.705,284.400 336.705 C 285.292 336.705,285.270 336.672,284.200 336.400 C 283.540 336.232,282.550 336.095,282.000 336.095 C 281.108 336.095,281.130 336.128,282.200 336.400 " stroke="none" fill="#980808" fill-rule="evenodd"></path><path id="path3" d="M184.800 54.416 C 145.816 56.701,111.209 74.739,86.214 105.800 C 77.515 116.611,67.363 135.549,64.159 146.946 C 62.947 151.256,63.092 151.896,64.373 147.891 C 80.841 96.414,127.060 59.819,181.459 55.184 C 216.485 52.199,244.645 61.021,271.200 83.297 C 292.189 100.904,312.244 131.297,307.147 137.776 C 305.097 140.383,302.007 140.778,280.400 141.199 C 263.108 141.535,261.763 141.513,261.273 140.880 C 260.983 140.506,259.723 138.356,258.473 136.103 C 250.211 121.213,233.643 107.880,216.627 102.429 C 202.689 97.964,182.367 98.112,168.600 102.778 C 167.280 103.225,166.650 103.493,167.200 103.374 C 193.488 97.672,210.223 98.707,226.918 107.067 C 239.232 113.233,251.868 125.277,258.642 137.304 L 261.344 142.101 277.772 141.839 C 301.532 141.461,305.741 140.887,307.800 137.744 C 312.595 130.425,290.813 98.069,269.923 81.480 C 243.320 60.354,218.441 52.444,184.800 54.416 M160.359 105.545 C 128.781 118.068,108.889 145.234,106.452 179.162 L 106.124 183.725 104.349 185.362 C 103.373 186.263,101.106 188.138,99.312 189.528 C 84.820 200.761,72.940 222.290,71.738 239.500 C 71.357 244.944,72.237 244.647,74.147 238.685 C 81.310 216.336,101.804 196.642,126.800 188.087 C 141.887 182.923,147.658 182.299,190.400 181.215 L 204.200 180.865 185.600 181.046 C 151.888 181.374,144.874 182.034,130.737 186.207 C 103.815 194.154,81.823 214.248,73.799 238.230 C 71.955 243.742,71.832 243.821,72.162 239.280 C 72.705 231.800,75.964 221.819,80.523 213.671 C 81.837 211.322,83.539 208.230,84.304 206.800 C 86.980 201.800,94.523 193.776,102.112 187.855 C 106.120 184.728,106.800 183.691,106.800 180.703 C 106.800 149.376,129.461 118.204,161.400 105.594 C 163.160 104.899,164.675 104.256,164.767 104.165 C 165.201 103.735,163.882 104.148,160.359 105.545 M62.271 153.694 C 61.902 155.163,61.616 156.597,61.636 156.882 C 61.656 157.167,62.012 156.140,62.426 154.600 C 62.841 153.060,63.127 151.625,63.061 151.412 C 62.995 151.199,62.640 152.226,62.271 153.694 M61.200 157.841 C 61.200 158.046,60.749 160.191,60.199 162.607 C 59.648 165.023,58.760 170.060,58.226 173.800 C 57.302 180.275,57.129 181.830,56.557 188.800 C 56.224 192.859,56.227 209.832,56.561 213.800 C 57.751 227.932,58.713 234.193,61.199 244.000 C 62.371 248.621,63.916 253.389,63.971 252.550 C 63.987 252.303,63.720 251.313,63.377 250.350 C 58.190 235.771,55.256 201.855,57.517 182.600 C 58.462 174.547,59.632 167.050,60.657 162.469 C 61.215 159.977,61.565 157.832,61.436 157.702 C 61.306 157.573,61.200 157.635,61.200 157.841 M290.600 175.222 C 285.090 175.542,275.232 176.525,272.100 177.065 C 270.561 177.330,270.393 178.484,271.401 181.879 C 273.642 189.424,274.723 205.238,274.009 220.021 C 273.410 232.428,273.370 232.182,276.099 232.992 C 280.133 234.190,293.173 236.040,296.988 235.955 C 298.221 235.928,297.077 235.701,294.034 235.370 C 286.630 234.563,277.267 232.900,275.637 232.103 L 274.200 231.400 274.232 228.600 C 274.250 227.060,274.409 221.210,274.586 215.600 C 275.010 202.157,274.128 191.051,271.906 181.850 C 271.122 178.600,271.104 178.260,271.696 177.827 C 274.126 176.050,306.215 174.967,310.643 176.513 C 315.806 178.316,316.586 182.018,316.563 204.600 C 316.539 227.457,315.077 234.285,309.964 235.408 C 309.292 235.555,308.837 235.771,308.953 235.886 C 310.034 236.968,314.061 233.554,315.156 230.626 C 318.498 221.692,318.115 183.908,314.627 178.586 C 312.662 175.587,304.340 174.421,290.600 175.222 M209.100 180.697 C 210.695 180.773,213.305 180.773,214.900 180.697 C 216.495 180.621,215.190 180.559,212.000 180.559 C 208.810 180.559,207.505 180.621,209.100 180.697 M221.000 181.390 C 231.370 183.306,237.207 190.368,237.197 200.984 C 237.187 211.883,233.119 217.619,223.600 220.160 C 222.390 220.483,221.775 220.759,222.234 220.774 C 223.280 220.807,227.699 219.370,229.714 218.342 C 239.216 213.494,240.506 194.367,231.900 185.940 C 228.776 182.881,223.685 180.744,219.742 180.836 C 218.514 180.865,218.771 180.978,221.000 181.390 M184.200 221.226 C 148.000 221.611,144.101 222.270,130.066 230.380 C 122.605 234.692,110.216 245.030,109.389 247.634 C 109.063 248.662,113.117 256.099,118.200 263.800 C 136.756 291.911,170.551 309.396,210.200 311.402 C 212.556 311.521,211.449 311.323,206.995 310.827 C 159.718 305.570,132.257 288.625,111.780 252.073 L 109.468 247.946 113.634 243.750 C 123.485 233.827,135.582 226.698,147.946 223.529 C 153.754 222.040,159.459 221.772,188.600 221.616 C 199.820 221.556,211.790 221.378,215.200 221.222 L 221.400 220.936 216.200 220.938 C 213.340 220.940,198.940 221.069,184.200 221.226 M301.700 236.296 C 302.965 236.375,305.035 236.375,306.300 236.296 C 307.565 236.216,306.530 236.151,304.000 236.151 C 301.470 236.151,300.435 236.216,301.700 236.296 M64.253 254.400 C 65.346 260.687,71.685 274.226,79.264 286.463 C 80.989 289.248,82.400 291.654,82.400 291.810 C 82.400 293.141,91.471 303.905,98.782 311.251 C 114.711 327.253,130.790 337.245,151.800 344.197 C 187.326 355.952,229.296 352.607,261.107 335.487 C 264.411 333.709,263.860 333.719,274.526 335.254 C 277.565 335.692,280.257 335.981,280.509 335.897 C 281.045 335.718,273.944 334.506,268.200 333.796 L 264.200 333.301 259.388 335.838 C 223.410 354.810,174.092 355.437,136.126 337.405 C 104.309 322.294,79.335 294.387,66.498 259.600 C 63.968 252.743,63.962 252.730,64.253 254.400 M257.619 268.149 C 257.283 269.034,254.195 273.940,252.935 275.591 C 249.817 279.678,243.935 286.340,241.626 288.400 C 240.024 289.830,238.057 291.637,237.256 292.415 C 236.455 293.194,235.080 294.363,234.200 295.013 C 233.320 295.663,232.510 296.309,232.400 296.447 C 232.111 296.811,223.170 302.398,222.860 302.409 C 222.717 302.414,222.150 302.770,221.600 303.200 C 221.050 303.630,220.285 303.986,219.900 303.991 C 219.422 303.997,219.200 304.318,219.200 305.000 C 219.200 305.951,219.313 306.000,221.511 306.000 C 227.316 306.000,247.546 309.339,252.400 311.098 C 255.019 312.047,265.537 315.650,266.061 315.778 C 266.424 315.867,267.260 316.218,267.919 316.558 C 270.168 317.721,272.097 317.788,273.003 316.734 C 274.359 315.158,280.128 306.475,281.418 304.071 C 282.088 302.822,283.213 300.910,283.918 299.822 C 284.623 298.734,285.200 297.634,285.200 297.378 C 285.200 297.122,285.740 295.900,286.401 294.662 C 287.061 293.425,287.899 291.644,288.263 290.706 C 288.627 289.768,289.171 288.711,289.472 288.358 C 289.773 288.004,290.216 286.564,290.456 285.158 C 290.697 283.751,291.052 282.429,291.247 282.220 C 292.265 281.124,291.308 276.287,289.693 274.371 C 288.750 273.251,283.587 270.801,282.158 270.795 C 281.521 270.793,279.560 270.433,277.800 269.995 C 276.040 269.558,272.890 269.012,270.800 268.782 C 268.710 268.552,266.460 268.206,265.800 268.014 C 262.382 267.020,258.021 267.091,257.619 268.149 M264.045 268.433 C 265.230 268.671,268.540 269.196,271.400 269.600 C 289.244 272.121,292.498 274.473,290.394 283.331 C 289.549 286.889,284.153 298.779,282.198 301.389 C 281.700 302.055,280.888 303.410,280.395 304.400 C 278.521 308.165,272.695 316.411,271.739 316.651 C 271.148 316.799,269.218 316.295,266.502 315.283 C 254.864 310.946,242.008 307.500,234.800 306.785 C 232.490 306.557,230.240 306.259,229.800 306.125 C 229.360 305.990,227.124 305.772,224.832 305.640 C 220.505 305.391,219.528 304.922,221.490 304.036 C 232.198 299.200,249.175 283.416,256.269 271.700 L 258.509 268.000 260.200 268.000 C 261.130 268.000,262.860 268.195,264.045 268.433 M219.843 307.033 C 219.709 307.381,219.600 307.996,219.600 308.399 C 219.600 308.803,219.388 309.204,219.129 309.290 C 218.870 309.377,218.791 309.662,218.953 309.924 C 219.308 310.499,222.000 310.566,222.000 310.000 C 222.000 309.780,222.289 309.600,222.643 309.600 C 223.065 309.600,223.202 309.382,223.043 308.967 C 222.909 308.619,222.800 308.259,222.800 308.167 C 222.800 308.075,222.271 308.000,221.624 308.000 C 220.977 308.000,220.336 307.820,220.200 307.600 C 220.064 307.380,220.143 307.200,220.376 307.200 C 220.609 307.200,220.800 307.020,220.800 306.800 C 220.800 306.167,220.111 306.335,219.843 307.033 M227.600 308.207 C 227.600 308.701,227.292 308.829,226.334 308.730 C 225.575 308.652,225.000 308.800,224.900 309.100 C 224.785 309.444,225.228 309.600,226.320 309.600 C 227.876 309.600,228.962 308.394,227.962 307.777 C 227.763 307.654,227.600 307.847,227.600 308.207 M230.267 308.667 C 229.195 309.739,230.041 311.200,231.733 311.200 C 232.687 311.200,233.574 311.308,233.706 311.439 C 233.838 311.571,235.443 311.712,237.273 311.754 C 239.103 311.795,240.813 311.960,241.072 312.121 C 241.332 312.282,241.658 312.230,241.796 312.007 C 242.108 311.501,243.600 311.467,243.600 311.965 C 243.600 312.308,244.737 312.572,248.000 312.985 C 248.770 313.082,250.300 313.352,251.400 313.583 C 252.500 313.815,254.300 314.169,255.400 314.370 C 256.500 314.572,257.715 314.860,258.100 315.011 C 258.544 315.185,258.800 315.099,258.800 314.776 C 258.800 314.496,258.680 314.387,258.532 314.534 C 258.385 314.681,257.980 314.552,257.632 314.248 C 256.836 313.550,252.516 312.259,251.244 312.340 C 250.719 312.373,250.089 312.153,249.844 311.851 C 249.457 311.371,247.152 310.787,243.000 310.115 C 242.340 310.009,241.710 309.793,241.600 309.636 C 241.490 309.479,241.040 309.339,240.600 309.324 C 240.160 309.309,239.227 309.165,238.526 309.004 C 237.366 308.737,237.271 308.786,237.472 309.555 C 237.644 310.212,237.511 310.400,236.874 310.400 C 236.340 310.400,236.011 310.098,235.928 309.531 C 235.739 308.251,234.800 308.114,234.800 309.367 C 234.800 310.716,233.701 310.742,233.364 309.400 C 233.036 308.093,232.400 308.113,232.400 309.429 C 232.400 310.198,232.223 310.422,231.700 310.313 C 231.249 310.219,231.034 309.853,231.095 309.284 C 231.188 308.421,230.801 308.132,230.267 308.667 M214.800 311.538 C 213.709 311.766,220.453 312.508,229.600 313.165 C 260.486 315.385,276.498 320.289,296.000 333.503 C 306.373 340.531,307.462 342.568,299.570 340.180 C 295.327 338.896,286.818 336.792,286.010 336.826 C 285.675 336.840,288.100 337.541,291.400 338.383 C 294.700 339.226,298.570 340.292,300.000 340.752 C 312.149 344.665,300.652 334.285,282.347 324.814 C 279.567 323.377,277.273 322.020,277.249 321.800 C 277.224 321.580,276.618 321.258,275.902 321.084 C 275.186 320.911,272.260 320.064,269.400 319.202 C 260.639 316.564,252.346 314.767,246.400 314.219 C 244.970 314.087,241.190 313.719,238.000 313.400 C 232.899 312.890,226.823 312.356,219.600 311.783 C 218.390 311.687,217.040 311.545,216.600 311.469 C 216.160 311.392,215.350 311.423,214.800 311.538 M273.680 318.080 C 272.952 318.808,273.088 319.083,274.400 319.540 C 275.761 320.015,275.768 320.006,275.136 318.619 C 274.615 317.476,274.373 317.387,273.680 318.080 M282.200 336.400 C 282.860 336.568,283.850 336.705,284.400 336.705 C 285.292 336.705,285.270 336.672,284.200 336.400 C 283.540 336.232,282.550 336.095,282.000 336.095 C 281.108 336.095,281.130 336.128,282.200 336.400 " stroke="none" fill="#980808" fill-rule="evenodd"></path><path id="path4" d="M184.800 54.416 C 145.816 56.701,111.209 74.739,86.214 105.800 C 77.515 116.611,67.363 135.549,64.159 146.946 C 62.947 151.256,63.092 151.896,64.373 147.891 C 80.841 96.414,127.060 59.819,181.459 55.184 C 216.485 52.199,244.645 61.021,271.200 83.297 C 292.189 100.904,312.244 131.297,307.147 137.776 C 305.097 140.383,302.007 140.778,280.400 141.199 C 263.108 141.535,261.763 141.513,261.273 140.880 C 260.983 140.506,259.723 138.356,258.473 136.103 C 250.211 121.213,233.643 107.880,216.627 102.429 C 202.689 97.964,182.367 98.112,168.600 102.778 C 167.280 103.225,166.650 103.493,167.200 103.374 C 193.488 97.672,210.223 98.707,226.918 107.067 C 239.232 113.233,251.868 125.277,258.642 137.304 L 261.344 142.101 277.772 141.839 C 301.532 141.461,305.741 140.887,307.800 137.744 C 312.595 130.425,290.813 98.069,269.923 81.480 C 243.320 60.354,218.441 52.444,184.800 54.416 M160.359 105.545 C 128.781 118.068,108.889 145.234,106.452 179.162 L 106.124 183.725 104.349 185.362 C 103.373 186.263,101.106 188.138,99.312 189.528 C 84.820 200.761,72.940 222.290,71.738 239.500 C 71.357 244.944,72.237 244.647,74.147 238.685 C 81.310 216.336,101.804 196.642,126.800 188.087 C 141.887 182.923,147.658 182.299,190.400 181.215 L 204.200 180.865 185.600 181.046 C 151.888 181.374,144.874 182.034,130.737 186.207 C 103.815 194.154,81.823 214.248,73.799 238.230 C 71.955 243.742,71.832 243.821,72.162 239.280 C 72.705 231.800,75.964 221.819,80.523 213.671 C 81.837 211.322,83.539 208.230,84.304 206.800 C 86.980 201.800,94.523 193.776,102.112 187.855 C 106.120 184.728,106.800 183.691,106.800 180.703 C 106.800 149.376,129.461 118.204,161.400 105.594 C 163.160 104.899,164.675 104.256,164.767 104.165 C 165.201 103.735,163.882 104.148,160.359 105.545 M62.271 153.694 C 61.902 155.163,61.616 156.597,61.636 156.882 C 61.656 157.167,62.012 156.140,62.426 154.600 C 62.841 153.060,63.127 151.625,63.061 151.412 C 62.995 151.199,62.640 152.226,62.271 153.694 M61.200 157.841 C 61.200 158.046,60.749 160.191,60.199 162.607 C 59.648 165.023,58.760 170.060,58.226 173.800 C 57.302 180.275,57.129 181.830,56.557 188.800 C 56.224 192.859,56.227 209.832,56.561 213.800 C 57.751 227.932,58.713 234.193,61.199 244.000 C 62.371 248.621,63.916 253.389,63.971 252.550 C 63.987 252.303,63.720 251.313,63.377 250.350 C 58.190 235.771,55.256 201.855,57.517 182.600 C 58.462 174.547,59.632 167.050,60.657 162.469 C 61.215 159.977,61.565 157.832,61.436 157.702 C 61.306 157.573,61.200 157.635,61.200 157.841 M290.600 175.222 C 285.090 175.542,275.232 176.525,272.100 177.065 C 270.561 177.330,270.393 178.484,271.401 181.879 C 273.642 189.424,274.723 205.238,274.009 220.021 C 273.410 232.428,273.370 232.182,276.099 232.992 C 280.133 234.190,293.173 236.040,296.988 235.955 C 298.221 235.928,297.077 235.701,294.034 235.370 C 286.630 234.563,277.267 232.900,275.637 232.103 L 274.200 231.400 274.232 228.600 C 274.250 227.060,274.409 221.210,274.586 215.600 C 275.010 202.157,274.128 191.051,271.906 181.850 C 271.122 178.600,271.104 178.260,271.696 177.827 C 274.126 176.050,306.215 174.967,310.643 176.513 C 315.806 178.316,316.586 182.018,316.563 204.600 C 316.539 227.457,315.077 234.285,309.964 235.408 C 309.292 235.555,308.837 235.771,308.953 235.886 C 310.034 236.968,314.061 233.554,315.156 230.626 C 318.498 221.692,318.115 183.908,314.627 178.586 C 312.662 175.587,304.340 174.421,290.600 175.222 M209.100 180.697 C 210.695 180.773,213.305 180.773,214.900 180.697 C 216.495 180.621,215.190 180.559,212.000 180.559 C 208.810 180.559,207.505 180.621,209.100 180.697 M221.000 181.390 C 231.370 183.306,237.207 190.368,237.197 200.984 C 237.187 211.883,233.119 217.619,223.600 220.160 C 222.390 220.483,221.775 220.759,222.234 220.774 C 223.280 220.807,227.699 219.370,229.714 218.342 C 239.216 213.494,240.506 194.367,231.900 185.940 C 228.776 182.881,223.685 180.744,219.742 180.836 C 218.514 180.865,218.771 180.978,221.000 181.390 M184.200 221.226 C 148.000 221.611,144.101 222.270,130.066 230.380 C 122.605 234.692,110.216 245.030,109.389 247.634 C 109.063 248.662,113.117 256.099,118.200 263.800 C 136.756 291.911,170.551 309.396,210.200 311.402 C 212.556 311.521,211.449 311.323,206.995 310.827 C 159.718 305.570,132.257 288.625,111.780 252.073 L 109.468 247.946 113.634 243.750 C 123.485 233.827,135.582 226.698,147.946 223.529 C 153.754 222.040,159.459 221.772,188.600 221.616 C 199.820 221.556,211.790 221.378,215.200 221.222 L 221.400 220.936 216.200 220.938 C 213.340 220.940,198.940 221.069,184.200 221.226 M301.700 236.296 C 302.965 236.375,305.035 236.375,306.300 236.296 C 307.565 236.216,306.530 236.151,304.000 236.151 C 301.470 236.151,300.435 236.216,301.700 236.296 M64.253 254.400 C 65.346 260.687,71.685 274.226,79.264 286.463 C 80.989 289.248,82.400 291.654,82.400 291.810 C 82.400 293.141,91.471 303.905,98.782 311.251 C 114.711 327.253,130.790 337.245,151.800 344.197 C 187.326 355.952,229.296 352.607,261.107 335.487 C 264.411 333.709,263.860 333.719,274.526 335.254 C 277.565 335.692,280.257 335.981,280.509 335.897 C 281.045 335.718,273.944 334.506,268.200 333.796 L 264.200 333.301 259.388 335.838 C 223.410 354.810,174.092 355.437,136.126 337.405 C 104.309 322.294,79.335 294.387,66.498 259.600 C 63.968 252.743,63.962 252.730,64.253 254.400 M257.619 268.149 C 257.283 269.034,254.195 273.940,252.935 275.591 C 249.817 279.678,243.935 286.340,241.626 288.400 C 240.024 289.830,238.057 291.637,237.256 292.415 C 236.455 293.194,235.080 294.363,234.200 295.013 C 233.320 295.663,232.510 296.309,232.400 296.447 C 232.111 296.811,223.170 302.398,222.860 302.409 C 222.717 302.414,222.150 302.770,221.600 303.200 C 221.050 303.630,220.285 303.986,219.900 303.991 C 219.422 303.997,219.200 304.318,219.200 305.000 C 219.200 305.951,219.313 306.000,221.511 306.000 C 227.316 306.000,247.546 309.339,252.400 311.098 C 255.019 312.047,265.537 315.650,266.061 315.778 C 266.424 315.867,267.260 316.218,267.919 316.558 C 270.168 317.721,272.097 317.788,273.003 316.734 C 274.359 315.158,280.128 306.475,281.418 304.071 C 282.088 302.822,283.213 300.910,283.918 299.822 C 284.623 298.734,285.200 297.634,285.200 297.378 C 285.200 297.122,285.740 295.900,286.401 294.662 C 287.061 293.425,287.899 291.644,288.263 290.706 C 288.627 289.768,289.171 288.711,289.472 288.358 C 289.773 288.004,290.216 286.564,290.456 285.158 C 290.697 283.751,291.052 282.429,291.247 282.220 C 292.265 281.124,291.308 276.287,289.693 274.371 C 288.750 273.251,283.587 270.801,282.158 270.795 C 281.521 270.793,279.560 270.433,277.800 269.995 C 276.040 269.558,272.890 269.012,270.800 268.782 C 268.710 268.552,266.460 268.206,265.800 268.014 C 262.382 267.020,258.021 267.091,257.619 268.149 M264.045 268.433 C 265.230 268.671,268.540 269.196,271.400 269.600 C 289.244 272.121,292.498 274.473,290.394 283.331 C 289.549 286.889,284.153 298.779,282.198 301.389 C 281.700 302.055,280.888 303.410,280.395 304.400 C 278.521 308.165,272.695 316.411,271.739 316.651 C 271.148 316.799,269.218 316.295,266.502 315.283 C 254.864 310.946,242.008 307.500,234.800 306.785 C 232.490 306.557,230.240 306.259,229.800 306.125 C 229.360 305.990,227.124 305.772,224.832 305.640 C 220.505 305.391,219.528 304.922,221.490 304.036 C 232.198 299.200,249.175 283.416,256.269 271.700 L 258.509 268.000 260.200 268.000 C 261.130 268.000,262.860 268.195,264.045 268.433 M219.843 307.033 C 219.709 307.381,219.600 307.996,219.600 308.399 C 219.600 308.803,219.388 309.204,219.129 309.290 C 218.870 309.377,218.791 309.662,218.953 309.924 C 219.308 310.499,222.000 310.566,222.000 310.000 C 222.000 309.780,222.289 309.600,222.643 309.600 C 223.065 309.600,223.202 309.382,223.043 308.967 C 222.909 308.619,222.800 308.259,222.800 308.167 C 222.800 308.075,222.271 308.000,221.624 308.000 C 220.977 308.000,220.336 307.820,220.200 307.600 C 220.064 307.380,220.143 307.200,220.376 307.200 C 220.609 307.200,220.800 307.020,220.800 306.800 C 220.800 306.167,220.111 306.335,219.843 307.033 M227.600 308.207 C 227.600 308.701,227.292 308.829,226.334 308.730 C 225.575 308.652,225.000 308.800,224.900 309.100 C 224.785 309.444,225.228 309.600,226.320 309.600 C 227.876 309.600,228.962 308.394,227.962 307.777 C 227.763 307.654,227.600 307.847,227.600 308.207 M230.267 308.667 C 229.195 309.739,230.041 311.200,231.733 311.200 C 232.687 311.200,233.574 311.308,233.706 311.439 C 233.838 311.571,235.443 311.712,237.273 311.754 C 239.103 311.795,240.813 311.960,241.072 312.121 C 241.332 312.282,241.658 312.230,241.796 312.007 C 242.108 311.501,243.600 311.467,243.600 311.965 C 243.600 312.308,244.737 312.572,248.000 312.985 C 248.770 313.082,250.300 313.352,251.400 313.583 C 252.500 313.815,254.300 314.169,255.400 314.370 C 256.500 314.572,257.715 314.860,258.100 315.011 C 258.544 315.185,258.800 315.099,258.800 314.776 C 258.800 314.496,258.680 314.387,258.532 314.534 C 258.385 314.681,257.980 314.552,257.632 314.248 C 256.836 313.550,252.516 312.259,251.244 312.340 C 250.719 312.373,250.089 312.153,249.844 311.851 C 249.457 311.371,247.152 310.787,243.000 310.115 C 242.340 310.009,241.710 309.793,241.600 309.636 C 241.490 309.479,241.040 309.339,240.600 309.324 C 240.160 309.309,239.227 309.165,238.526 309.004 C 237.366 308.737,237.271 308.786,237.472 309.555 C 237.644 310.212,237.511 310.400,236.874 310.400 C 236.340 310.400,236.011 310.098,235.928 309.531 C 235.739 308.251,234.800 308.114,234.800 309.367 C 234.800 310.716,233.701 310.742,233.364 309.400 C 233.036 308.093,232.400 308.113,232.400 309.429 C 232.400 310.198,232.223 310.422,231.700 310.313 C 231.249 310.219,231.034 309.853,231.095 309.284 C 231.188 308.421,230.801 308.132,230.267 308.667 M214.800 311.538 C 213.709 311.766,220.453 312.508,229.600 313.165 C 260.486 315.385,276.498 320.289,296.000 333.503 C 306.373 340.531,307.462 342.568,299.570 340.180 C 295.327 338.896,286.818 336.792,286.010 336.826 C 285.675 336.840,288.100 337.541,291.400 338.383 C 294.700 339.226,298.570 340.292,300.000 340.752 C 312.149 344.665,300.652 334.285,282.347 324.814 C 279.567 323.377,277.273 322.020,277.249 321.800 C 277.224 321.580,276.618 321.258,275.902 321.084 C 275.186 320.911,272.260 320.064,269.400 319.202 C 260.639 316.564,252.346 314.767,246.400 314.219 C 244.970 314.087,241.190 313.719,238.000 313.400 C 232.899 312.890,226.823 312.356,219.600 311.783 C 218.390 311.687,217.040 311.545,216.600 311.469 C 216.160 311.392,215.350 311.423,214.800 311.538 M273.680 318.080 C 272.952 318.808,273.088 319.083,274.400 319.540 C 275.761 320.015,275.768 320.006,275.136 318.619 C 274.615 317.476,274.373 317.387,273.680 318.080 M282.200 336.400 C 282.860 336.568,283.850 336.705,284.400 336.705 C 285.292 336.705,285.270 336.672,284.200 336.400 C 283.540 336.232,282.550 336.095,282.000 336.095 C 281.108 336.095,281.130 336.128,282.200 336.400 " stroke="none" fill="#980808" fill-rule="evenodd"></path></g></svg>